<svg xmlns="http://www.w3.org/2000/svg" xmlns:xlink="http://www.w3.org/1999/xlink" fill="#FFF" version="1.1" viewBox="122.92 139.55 454.21 280.84">
	<path xmlns="http://www.w3.org/2000/svg" d="m563.75 272.89v-13.328h-13.328v-13.328h-13.328v-40.039h-13.383v-26.656h-13.328v-13.328h-13.328v-13.328h-26.602v-13.328h-67.48v13.328h-13.383v13.328h-79.129v-13.328h-13.383v-13.328h-67.48v13.328h-26.656v13.328h-13.328v13.328h-13.328v26.656h-13.383v40.039h-13.328v13.328h-13.328v13.328h-13.328v54.152h13.328v13.328h13.328v13.328h13.328v13.383h26.711v13.328h26.656v13.328h26.656v13.328h53.312v13.328h107.57v-13.328h53.312v-13.328h26.656v-13.328h26.656v-13.328h26.711v-13.383h13.328v-13.328h13.328v-13.328h13.328v-54.152zm-187.54 120.01v13.328h-52.473v-13.328h-66.695v-13.328h-26.656v-13.328h-26.656v-13.383h-26.656v-13.328h-13.383v-12.488h25.871v13.328h39.984v13.328h66.641v13.383h107.57v-13.383h66.641v-13.328h39.984v-13.328h25.871v12.488h-13.383v13.328h-26.656v13.383h-26.656v13.328h-26.656v13.328zm-145.77-239.12h52.473v13.328h13.328v26.656h13.383v13.328h14.168v-26.656h52.473v26.656h14.168v-13.328h13.383v-26.656h13.328v-13.328h52.473v12.488h-13.328v13.328h-13.328v40.879h13.328v26.656h13.328v13.328h40.824v-13.328h12.488v13.328h13.383v13.328h13.328v25.816h-13.328v13.328h-40.039v13.328h-39.984v13.328h-66.695v13.328h-79.129v-13.328h-66.695v-13.328h-39.984v-13.328h-40.039v-13.328h-13.328v-25.816h13.328v-13.328h13.383v-13.328h12.488v13.328h40.824v-13.328h13.328v-26.656h13.328v-40.879h-13.328v-13.328h-13.328zm319.2 172.48h-12.488v-12.488h12.488zm-399.22 0v-12.488h12.488v12.488z"/>
</svg>